<svg xmlns="http://www.w3.org/2000/svg" width="200" height="210" viewBox="0 0 200 210"><path fill="#3398DB" d="M-47.25-36h294.5v282h-294.5z"/><path fill="#EE912D" d="M100.399 139.119c20.677-40.778-18.832-67.939-18.832-67.939s-19.887 43.627 18.832 67.939zM100.357 139.131c-2.482-45.653-50.28-49.421-50.28-49.421s4.59 47.724 50.28 49.421zM100.45 139.105c-21.375-40.417 17.663-68.253 17.663-68.253s20.633 43.277-17.663 68.253zM100.5 139.148c1.699-45.69 49.422-50.28 49.422-50.28s-3.768 47.796-49.422 50.28z"/><path fill="#FFCC32" d="M76.495 98.56c.451 13.429 5.7 29.127 23.904 40.56l-.042.012c-1.167-21.458-12.343-33.663-23.862-40.572zM100.021 92.038c6.525 11.744 10.109 27.907.386 47.077l.043-.012c-10.046-18.994-6.747-35.211-.429-47.065zM123.783 98.166c-.254 13.434-5.27 29.209-23.302 40.907l.041.012c.849-21.472 11.843-33.84 23.261-40.919z"/><path fill="#fff" d="M100.357 139.131c-.501-9.223-2.853-16.736-6.284-22.854.205 6.955 2.028 14.537 6.271 22.625M100.308 139.096c4.211-8.221 5.965-15.895 6.083-22.908h-.002c-3.324 6.111-5.568 13.58-5.978 22.705"/></svg>