<svg xmlns="http://www.w3.org/2000/svg" width="200" height="210" viewBox="0 0 200 210"><path fill="#F36D3D" d="M-47-53h294v316h-294z"/><g fill="#fff"><path d="M117.955 78.256l-.174-.454c-.584-1.528-1.029-2.771-1.367-3.803-.336-1.036-.707-2.304-1.125-3.871l-.133-.475-.432.216c-3.979 1.93-8.893 4.16-11.822 5.48.301-2.809.93-8.433 1.559-12.942l.061-.479-.479.026c-1.609.079-2.908.122-3.976.122h-.126c-1.068 0-2.371-.043-3.973-.122l-.488-.026.068.479c.611 4.405 1.212 9.752 1.554 12.942-2.932-1.318-7.834-3.549-11.822-5.48l-.436-.215-.127.472c-.425 1.582-.797 2.854-1.132 3.878-.328 1.032-.777 2.271-1.365 3.799l-.17.454.477.084c4.362.778 9.642 1.858 12.789 2.521-2.169 2.388-5.812 6.378-8.863 9.55l-.339.35.405.264c1.374.896 2.47 1.639 3.34 2.277.868.627 1.911 1.437 3.192 2.467l.376.307.227-.43c2.095-3.906 4.75-8.596 6.348-11.379 1.599 2.783 4.257 7.472 6.349 11.379l.229.43.379-.307c1.271-1.025 2.314-1.833 3.191-2.467.877-.64 1.969-1.386 3.334-2.277l.408-.264-.342-.35c-3.029-3.157-6.686-7.156-8.857-9.55 3.15-.662 8.436-1.745 12.783-2.521l.479-.085zM148.668 130.242l-.172-.456c-.582-1.523-1.033-2.768-1.363-3.797-.336-1.036-.705-2.305-1.127-3.875l-.129-.471-.439.209c-3.971 1.929-8.881 4.164-11.82 5.479.307-2.808.939-8.431 1.561-12.938l.068-.482-.492.021c-1.604.084-2.902.123-3.977.123h-.119c-1.066 0-2.365-.039-3.971-.123l-.486-.021.064.482c.605 4.4 1.211 9.748 1.557 12.938-2.934-1.315-7.84-3.552-11.824-5.479l-.436-.209-.125.471c-.432 1.582-.795 2.851-1.133 3.875-.338 1.029-.779 2.271-1.363 3.797l-.172.456.477.088c4.361.776 9.643 1.86 12.789 2.517-2.166 2.393-5.812 6.381-8.865 9.553l-.334.351.408.271c1.371.896 2.459 1.636 3.332 2.271.869.628 1.912 1.438 3.191 2.475l.381.303.229-.428c2.09-3.91 4.744-8.599 6.346-11.385 1.598 2.786 4.254 7.475 6.348 11.385l.229.428.375-.303c1.277-1.031 2.322-1.84 3.197-2.475.881-.643 1.969-1.383 3.332-2.271l.41-.271-.34-.351c-3.035-3.154-6.689-7.151-8.857-9.553 3.148-.656 8.438-1.74 12.777-2.517l.473-.088zM87.237 130.242l-.173-.456c-.586-1.523-1.031-2.768-1.363-3.797-.341-1.036-.712-2.305-1.134-3.875l-.122-.471-.442.209c-3.968 1.929-8.885 4.164-11.822 5.479.307-2.808.934-8.431 1.558-12.938l.066-.482-.482.021c-1.605.084-2.907.123-3.977.123h-.122c-1.066 0-2.367-.039-3.975-.123l-.484-.021.067.482c.612 4.4 1.21 9.748 1.557 12.938-2.931-1.315-7.835-3.548-11.824-5.479l-.439-.209-.124.471c-.422 1.582-.792 2.851-1.132 3.875-.333 1.029-.778 2.271-1.36 3.797l-.179.456.481.088c4.36.776 9.638 1.86 12.787 2.517-2.17 2.393-5.815 6.379-8.864 9.551l-.335.35.403.271c1.375.895 2.466 1.635 3.337 2.271.87.629 1.912 1.438 3.192 2.474l.38.305.23-.428c2.089-3.91 4.748-8.597 6.344-11.384 1.597 2.787 4.251 7.474 6.346 11.384l.232.433.373-.31c1.273-1.029 2.32-1.838 3.194-2.474.875-.64 1.971-1.381 3.334-2.271l.407-.271-.335-.35c-3.037-3.155-6.69-7.15-8.865-9.553 3.15-.656 8.437-1.74 12.783-2.517l.482-.086z"/></g></svg>