<svg xmlns="http://www.w3.org/2000/svg" width="200" height="210" viewBox="0 0 200 210"><path fill="#DD473D" d="M-18-25.5h236v261h-236v-261zm36.341 49.156h162.609v162.609h-162.609v-162.609z"/><path fill="#A83026" d="M207.988-47.064l92.736 93.437.395 22.4-1.273 26.567-134.679 114.66-102.334-91.166-7.536-1.256-.509-8.018 2.127-5.142 151.073-151.482z"/><path fill="#DD473D" d="M175.809 191.938l-91.439-91.213-24.007-23.947-2.868-27.192-1.197-30.355 145.179-145.534 146.252 145.896-171.92 172.345z"/><path fill="#A83026" d="M244.641-54.98l92.736 93.437.395 22.399-1.273 26.567-138.587 138.931-107.526-107.264-13.343-14.401 6.071-8.456 11.756-1.036 149.771-150.177z"/><path fill="#DD473D" d="M204.182 191.773l-91.438-91.211-24.007-23.946-2.868-27.192-1.196-30.355 145.177-145.534 146.254 145.896-171.922 172.342z"/><path fill="#A83026" d="M272.623-51.078l92.736 93.437.395 22.4-1.273 26.567-138.586 138.929-107.527-107.262-8.64-8.765v-18.049l15.011 1.028 147.884-148.285z"/><path fill="#DD473D" d="M232.326 195.839l-91.439-91.212-24.005-23.946-2.868-27.192-1.197-30.354 145.176-145.535 146.255 145.896-171.922 172.343z"/><path fill="#A83026" d="M297.59-54.981l92.736 93.438.396 22.399-1.275 26.567-138.586 138.931-107.526-107.264-5.478-9.033 3.533-8.414 156.2-156.624zM137.857 150.834l39.754 10 22.389 22.333 9.835 22.667-48.391 22.269-107.526-107.264 14.416-6.506 38.666 2.667 30.857 33.834z"/><path fill="#DD473D" d="M257.294 191.938l-91.44-91.213-24.004-23.947-2.869-27.192-1.195-30.355 145.174-145.534 146.255 145.896-171.921 172.345z"/><path fill="#F4EAE9" d="M53.887 97.238h-8.92v-8.158h27.639v8.159h-8.92v23.665h-9.799v-23.666zm20.238-8.158h26.826v8.159h-17.021v3.963h17.021v7.582h-17.021v3.963h17.027v8.157h-26.832v-31.824zm28.477 0h16.09c10.609 0 14.354 7.843 14.354 15.868 0 9.762-5.169 15.956-16.268 15.956h-14.176v-31.824zm9.804 23.666h3.832c6.113 0 7.004-4.948 7.004-7.938 0-2.001-.625-7.57-7.717-7.57h-3.119v15.508zM147.139 108.641l-2.992-4.96-2.914 4.96h-7.188l6.821-10.029-6.567-9.597h7.187l2.662 4.744 2.74-4.744h7.182l-6.564 9.597 6.821 10.029h-7.188z"/><path fill="#DD473D" d="M97.695 92.602"/></svg>