<svg xmlns="http://www.w3.org/2000/svg" width="61.75" height="37.5" viewBox="0 0 61.75 37.5"><path fill="#fff" d="M40.74 10.871v10.185l5.092-5.093zM31.959 2.09c-.578-.579-1.589-.579-2.169 0l-2.188 2.188h6.546l-2.189-2.188zM21.011 10.868l-4.47 4.47-.676.675 5.146 5.146zM24.291 26.495l.098-.099-8.639-8.638v17.275000000000002l8.54-8.54zM43.945 34.84h-.004l-11.982-11.984c-.578-.579-1.589-.579-2.169 0l-12.282 12.28h-.002l-.707.707h28.152l-.279-.278-.727-.725zM37.309 26.346l.148.149.004-.002 8.539 8.54v-17.377999999999997zM28.86 21.926c.538-.538 1.253-.834 2.015-.834.761 0 1.477.296 2.014.834l.48.48 3.01 3.01 3.045-3.045v-12.816l-3.961-3.961h-13.136v16.881l2.992 2.992 3.541-3.541zm-2.589-12.387h9.207v1.315h-9.207v-1.315zm0 3.946h6.576v1.315h-6.576v-1.315zm0 3.946h9.207v1.315h-9.207v-1.315z"/></svg>