<svg xmlns="http://www.w3.org/2000/svg" xmlns:xlink="http://www.w3.org/1999/xlink" width="200" height="210" viewBox="0 0 200 210"><path fill="#2D313C" d="M-44.5-33.5h289v277h-289z"/><circle fill="#6FBCEA" cx="99.892" cy="104.9" r="58"/><g stroke="#EA3F3F" stroke-miterlimit="10" fill="none"><path d="M6.372 146.08l1.127-.99"/><path stroke-dasharray="2.9507,2.9507" d="M9.716 143.143l60.959-53.559"/><path d="M71.783 88.611l1.127-.99 1.013 1.106"/><path stroke-dasharray="3.0877,3.0877" d="M76.008 91.004l19.81 21.635"/><path d="M96.861 113.775l1.013 1.108.775-1.283"/><path stroke-dasharray="3.0686,3.0686" d="M100.236 110.973l21.418-35.459"/><path d="M122.448 74.201l.777-1.284 1.464.319"/><path stroke-dasharray="3.0839,3.0839" d="M127.702 73.893l46.704 10.185"/><path d="M175.912 84.406l1.466.32.911-1.191"/><path stroke-dasharray="3.3467,3.3467" d="M180.322 80.876l11.184-14.62"/><path d="M192.521 64.927l.913-1.192"/></g><g enable-background="new" fill="#64A9D2"><path d="M59.95 95.713l-1.88 8.874h2.834l-.265 1.112h-2.808l-1.88 8.848h3.655l-.265 1.086h-4.662l4.423-21.006h4.742c-.106.477-.185.688-.292 1.086h-3.602zM71.87 94.627l-6.437 21.006h-2.119l2.464-21.006h1.086c-.53 4.821-1.139 9.403-2.331 19.549h.212l6.092-19.549h1.033zM74.676 95.713l-1.88 8.874h2.834l-.265 1.112h-2.808l-1.88 8.848h3.655l-.265 1.086h-4.662l4.423-21.006h4.742c-.106.477-.185.688-.292 1.086h-3.602zM83.363 102.892c-.185.9-.583 2.384-1.695 2.49 1.086.344.742 2.172.583 2.86-.265 1.404-.662 3.126-.954 4.529-.344 1.643-.424 2.411-.265 2.861h-1.032c-.08-.133-.159-.769.159-2.305l1.113-5.298c.292-1.51.132-2.278-1.298-2.331h-.848c-.662 3.231-1.404 6.702-2.092 9.934h-1.06l4.423-21.006h2.49c1.722 0 1.987.821 1.695 2.49l-1.219 5.776zm-2.887 1.695c1.113 0 1.51-.292 1.801-1.59l1.166-5.562c.212-.979.318-1.695-1.006-1.722h-1.192l-1.88 8.874h1.111zM88.182 113.223l3.947-18.596h1.086l-3.814 17.934c-.186.848-.371 1.986.715 1.986 1.165 0 1.589-1.007 1.801-1.881l3.841-18.039h1.06l-3.92 18.489c-.424 1.616-1.298 2.517-2.94 2.517-1.67-.079-2.094-.981-1.776-2.41zM94.539 115.633l4.424-21.006h2.569c1.351.026 1.774.45 1.774 1.298 0 .291-.053.715-.133 1.112l-1.297 6.119c-.451 1.775-1.192 2.543-2.835 2.543h-1.351c-.663 3.231-1.404 6.702-2.093 9.934h-1.058zm4.636-11.046c1.245-.026 1.483-.662 1.669-1.59l1.165-5.562c.079-.345.133-.609.133-.874 0-.609-.159-.848-.98-.848h-1.351l-1.881 8.874h1.245zM116.364 94.627l-6.118 21.006h-1.643l2.04-19.205c-2.543 8.026-4.371 13.669-6.12 19.205h-1.642l2.808-21.006h1.113c-1.723 12.608-1.855 13.298-2.649 18.701l6.225-18.701h1.298c-.344 3.92-.9 8.105-1.774 18.701l5.404-18.701h1.058zM112.416 115.633l6.437-21.006h2.119l-2.463 21.006h-1.086l.874-7.47h-2.569l-2.278 7.47h-1.034zm7.072-19.761l-3.391 11.205h2.331l1.352-11.205h-.292zM127.699 102.892c-.186.9-.583 2.384-1.695 2.49 1.086.344.742 2.172.583 2.86-.265 1.404-.662 3.126-.953 4.529-.345 1.643-.424 2.411-.266 2.861h-1.033c-.079-.133-.158-.769.159-2.305l1.112-5.298c.292-1.51.133-2.278-1.298-2.331h-.848c-.662 3.231-1.403 6.702-2.093 9.934h-1.06l4.424-21.006h2.49c1.722 0 1.986.821 1.695 2.49l-1.217 5.776zm-2.887 1.695c1.112 0 1.51-.292 1.801-1.59l1.166-5.562c.212-.979.317-1.695-1.007-1.722h-1.192l-1.881 8.874h1.113zM127.3 115.633l4.424-21.006h2.569c.954 0 1.775.079 1.775 1.324 0 .291-.054.662-.133 1.086l-3.417 16.079c-.503 2.384-1.616 2.517-2.808 2.517h-2.41zm1.245-1.086h1.271c1.298 0 1.483-.742 1.669-1.616l3.285-15.496c.053-.317.105-.583.105-.821 0-.662-.265-.9-1.165-.9h-1.14l-4.025 18.833zM134.822 113.223l.397-1.616h1.112l-.345 1.219c-.265 1.112-.291 1.722.821 1.722s1.616-1.192 1.854-2.438c.212-.953.477-2.119.477-3.417 0-1.06-.186-2.119-.742-3.152-.635-1.191-.874-2.331-.874-3.549 0-1.271.266-2.835.636-4.424.397-1.643 1.378-2.94 2.994-2.94 1.695 0 2.119.688 1.854 2.146-.105.609-.291 1.271-.424 1.881h-1.086l.291-1.219c.213-1.086.371-1.722-.715-1.722-1.165 0-1.695 1.192-1.881 2.014-.265 1.244-.556 2.516-.556 3.867 0 1.06.185 2.146.741 3.125.609 1.166.874 2.385.874 3.604 0 1.403-.344 2.967-.636 4.37-.397 1.643-1.351 2.94-2.993 2.94-1.746-.08-2.117-.902-1.799-2.411z"/></g><g enable-background="new" fill="#fff"><path d="M60.268 94.76l-1.88 8.874h2.834l-.265 1.112h-2.808l-1.88 8.848h3.655l-.265 1.086h-4.662l4.423-21.006h4.742c-.106.477-.185.688-.292 1.086h-3.602zM72.187 93.674l-6.437 21.006h-2.119l2.464-21.006h1.086c-.53 4.821-1.139 9.403-2.331 19.549h.212l6.092-19.549h1.033zM74.993 94.76l-1.88 8.874h2.834l-.265 1.112h-2.808l-1.88 8.848h3.655l-.265 1.086h-4.662l4.423-21.006h4.742c-.106.477-.185.688-.292 1.086h-3.602zM83.681 101.938c-.185.9-.583 2.384-1.695 2.49 1.086.344.742 2.172.583 2.86-.265 1.404-.662 3.126-.954 4.529-.344 1.643-.424 2.411-.265 2.861h-1.033c-.08-.133-.159-.769.159-2.305l1.113-5.298c.292-1.51.132-2.278-1.298-2.331h-.848c-.662 3.231-1.404 6.702-2.092 9.934h-1.06l4.423-21.006h2.49c1.722 0 1.987.821 1.695 2.49l-1.218 5.776zm-2.888 1.696c1.113 0 1.51-.292 1.801-1.59l1.166-5.562c.212-.979.318-1.695-1.006-1.722h-1.192l-1.88 8.874h1.111zM88.5 112.27l3.947-18.596h1.086l-3.814 17.934c-.186.848-.371 1.986.715 1.986 1.165 0 1.589-1.007 1.801-1.881l3.841-18.039h1.06l-3.92 18.489c-.424 1.616-1.298 2.517-2.94 2.517-1.671-.079-2.094-.981-1.776-2.41zM94.856 114.68l4.424-21.006h2.569c1.351.026 1.774.45 1.774 1.298 0 .291-.053.715-.132 1.112l-1.299 6.119c-.449 1.775-1.191 2.543-2.834 2.543h-1.351c-.663 3.231-1.404 6.702-2.093 9.934h-1.058zm4.636-11.046c1.244-.026 1.483-.662 1.668-1.59l1.166-5.562c.08-.345.133-.609.133-.874 0-.609-.159-.848-.98-.848h-1.351l-1.881 8.874h1.245zM116.682 93.674l-6.118 21.006h-1.643l2.04-19.205c-2.543 8.026-4.371 13.669-6.119 19.205h-1.643l2.808-21.006h1.112c-1.722 12.608-1.854 13.298-2.648 18.701l6.225-18.701h1.298c-.344 3.92-.9 8.105-1.774 18.701l5.404-18.701h1.058zM112.733 114.68l6.437-21.006h2.119l-2.463 21.006h-1.086l.874-7.47h-2.569l-2.278 7.47h-1.034zm7.073-19.761l-3.391 11.205h2.331l1.352-11.205h-.292zM128.017 101.938c-.186.9-.583 2.384-1.695 2.49 1.086.344.742 2.172.583 2.86-.265 1.404-.662 3.126-.953 4.529-.345 1.643-.424 2.411-.266 2.861h-1.033c-.079-.133-.158-.769.159-2.305l1.112-5.298c.292-1.51.133-2.278-1.298-2.331h-.848c-.662 3.231-1.403 6.702-2.093 9.934h-1.06l4.424-21.006h2.49c1.722 0 1.986.821 1.695 2.49l-1.217 5.776zm-2.887 1.696c1.112 0 1.51-.292 1.801-1.59l1.166-5.562c.212-.979.317-1.695-1.007-1.722h-1.192l-1.881 8.874h1.113zM127.617 114.68l4.424-21.006h2.569c.954 0 1.775.079 1.775 1.324 0 .291-.054.662-.133 1.086l-3.417 16.079c-.503 2.384-1.616 2.517-2.808 2.517h-2.41zm1.245-1.086h1.271c1.298 0 1.483-.742 1.669-1.616l3.285-15.496c.053-.317.105-.583.105-.821 0-.662-.265-.9-1.165-.9h-1.14l-4.025 18.833zM135.14 112.27l.397-1.616h1.112l-.345 1.219c-.265 1.112-.291 1.722.821 1.722s1.616-1.192 1.854-2.438c.212-.953.477-2.119.477-3.417 0-1.06-.186-2.119-.742-3.152-.635-1.191-.874-2.331-.874-3.549 0-1.271.266-2.835.636-4.424.397-1.643 1.378-2.94 2.994-2.94 1.695 0 2.119.688 1.854 2.146-.105.609-.291 1.271-.424 1.881h-1.086l.291-1.219c.213-1.086.371-1.722-.715-1.722-1.165 0-1.695 1.192-1.881 2.014-.265 1.244-.556 2.516-.556 3.867 0 1.06.185 2.146.741 3.125.609 1.166.874 2.385.874 3.604 0 1.403-.344 2.967-.636 4.37-.397 1.643-1.351 2.94-2.993 2.94-1.747-.08-2.118-.902-1.799-2.411z"/></g><defs><circle id="a" cx="99.892" cy="105.067" r="58"/></defs><clipPath id="b"><use xlink:href="#a" overflow="visible"/></clipPath><g clip-path="url(#b)"><defs><path id="c" d="M43.5 50.5h113v113h-113z"/></defs><clipPath id="d"><use xlink:href="#c" overflow="visible"/></clipPath><g clip-path="url(#d)"><path fill="#28486B" d="M98.241 213.391l-39.866-49.48 49.479-39.866 39.866 49.48z"/><path fill="#376E9C" d="M107.945 213.986l-44.928-44.928 44.93-44.93 44.928 44.928z"/><path fill="#132B46" d="M97.848 177.662l39.866-49.48 49.479 39.866-39.866 49.48z"/><path fill="#244262" d="M92.693 173.189l44.929-44.929 44.931 44.931-44.929 44.929z"/><path fill="#284668" d="M70.598 206.081l-39.864-49.478 49.479-39.865 39.864 49.478z"/><path fill="#315780" d="M80.307 206.679l-44.929-44.929 44.929-44.929 44.929 44.929z"/></g></g></svg>