<svg xmlns="http://www.w3.org/2000/svg" width="200" height="210" viewBox="0 0 200 210"><path fill="#F16539" d="M-51.451-48h302.902v306h-302.902z"/><path fill="#fff" d="M61.057 100.881c.637-.497 1.055-1.312 1.246-2.195.817-3.789-2.11-4.741-3.508-4.908-2.961-.354-5.85 2.097-6.118 6.331-.345 5.439 3.607 6.38 5.51 6.304s4.067-.788 4.217-2.516c.15-1.729-1.857-1.78-2.132-1.5s-.354 1.627-2.107 1.627l-1.734-2.567s2.925.751 4.626-.576zm-4.699-.797s.098-3.406 2.255-3.508c1.073-.05.736 1.58-.09 2.464-.835.895-2.165 1.044-2.165 1.044zm18.995 4.905s2.895 2.593 5.003-1.347 2.204-9.628-1.65-9.836c-2.362-.127-3.073 2.313-3.073 2.313s.453-2.722-1.321-2.516c-.932.108-1.469.299-1.764.584-.311-.048-.73-.003-1.309.178-.519.162-2.027.891-4.048 3.162-.152-1.797.186-2.888-.953-3.128-1.429-.301-3.369-.692-3.332 1.137.028 1.351.202 3.39 1.489 5.765-1.525 2.438-2.25 4.459-1.104 5.01 1.32.639 1.422-.021 1.93-1.474.143-.408.352-.874.619-1.374l.39.478c2.685 3.127 3.754 2.809 4.756 2.038.837-.645-.095-1.417-.768-2.013-.663-.587-1.591-1.534-2.305-3.392.417-.458.875-.92 1.396-1.379 1.232-1.086 2.285-1.498 3.014-1.814.005 2.817-.176 7.122-.5 9.541-.432 3.229-.711 4.626 1.447 4.066 2.159-.559 2.768-.661 2.539-1.678-.227-1.016-.456-4.321-.456-4.321zm.711-6.379c.85-2.397 2.729-3.043 1.956 1.245-.661 3.66-2.616 3.634-2.616 3.634s-.177-2.515.66-4.879zm7.357 7.472c2.179.439 3.499-.406 3.194-.737-.305-.33-.84-2.364-.587-4.676.254-2.313.66-4.184 2.479-5.727 1.759-1.492 2.658-.688 3.022-2.381.391-1.817-1.675-3.102-3.64-.788-1.996 2.351-1.947 4.881-2.201 4.881s.405-2.25-1.905-2.035c-1.423.133-1.85.455-1.85.811s.58.515.631 3.54c.052 3.025-.973 6.743.857 7.112zm4.19-6.139c-.561 5.427 3.353 6.459 5.259 6.429 1.906-.03 4.097-.688 4.316-2.411.218-1.724-1.786-1.822-2.072-1.549-.286.273-.284 1.618-2.036 1.576-1.751-.042-1.835-2.542-1.835-2.542s2.895.752 4.647-.533c1.594-1.169 1.97-3.059 1.59-4.631-.488-2.018-2.447-2.37-3.503-2.521-2.945-.424-5.93 1.957-6.366 6.182zm6.008-3.39c1.074-.025.673 1.596-.188 2.46-.87.874-2.206.991-2.206.991s.233-3.4 2.394-3.451zm14.68 3.597c2.781 1.72 2.27 3.261.49 2.816-1.357-.338-1.152-1.173-1.645-.965-.561.235-1.57 3.253 1.153 4.084.91.276 2.897.29 4.21-.271 1.346-.571 2.146-1.812 1.992-2.917-.295-2.142-2.102-2.814-3.479-3.586-1.023-.573-2.08-1.093-2.1-1.843-.021-1.034.611-1.304 1.137-1.277.808.042 1.018.797 1.008 1.079-.029.921-.938.822-.508 1.32.301.345 3.812-.089 3.562-2.541-.144-1.412-1.972-2.241-3.953-2.127-1.851.106-3.669 1.043-3.74 3.124-.051 1.553 1.073 2.61 1.873 3.104zm-8.053 2.814c-1.34-.333-1.118-1.161-1.625-.948-.573.241-1.784 3.32.888 4.167.892.282 2.88.297 4.228-.273 1.383-.584 2.266-1.849 2.187-2.979-.151-2.186-1.914-2.872-3.243-3.66-.984-.584-2.011-1.115-1.979-1.881.046-1.055.695-1.331 1.219-1.304.807.042.965.813.938 1.101-.09.94-1.01.879-.594 1.347.299.333 3.814-.09 3.729-2.592-.052-1.44-1.825-2.287-3.813-2.171-1.858.108-3.738 1.064-3.945 3.188-.155 1.585.901 2.664 1.667 3.168 2.661 1.754 2.027 3.255.343 2.837zm-16.543 4.252c-2.362-.127-3.072 2.312-3.072 2.312s.454-2.721-1.321-2.516c-1.752.203-2.138.688-2.057 1.575.178 1.933 0 8.515-.431 11.742-.433 3.228-.712 4.626 1.447 4.065 2.159-.562 2.769-.66 2.54-1.68-.229-1.017-.457-4.318-.457-4.318s2.895 2.593 5.002-1.349c2.107-3.936 2.204-9.624-1.651-9.831zm-.685 6.05c-.66 3.658-2.616 3.633-2.616 3.633s-.177-2.516.66-4.879c.85-2.399 2.73-3.043 1.956 1.246zm8.405 4.976c.006-.369-1.03-.744-.739-4.152.29-3.408 1.262-7.255-.72-7.101-1.454.112-3.145.597-2.894 1.192.2.478.588 1.221.458 3.69-.182 3.464-1.339 6.647 1.018 6.956 1.797.237 2.871-.216 2.877-.585zm21.69 2.418c-.754-.029-.84 1.14-4.149 1.134-1.327-.004-3.582-.215-6.616-1.221-1.078-.357-2.146-.552-2.146-.552s.261-4.562.551-7.062c.289-2.479.983-4.312-.783-4.212-.522.027-1.103.204-1.249.027-.203-.242-.722-2.014-3.183-1.534-.898.174-3.681.856-4.017 5.688-.268 3.848 1.04 5.728 2.828 5.704 1.995-.024 3.066-1.491 3.066-1.491l-.029 2.236s-6.985-.77-7.168 3.719c-.113 2.76 2.292 3.411 4.005 3.368 1.518-.036 2.786-.436 4.062-1.858 1.088-1.211 1.48-2.438 1.48-2.438s1.107.088 2.657.865c2.105 1.057 4.928 2.389 7.354 2.301 4.005-.143 4.092-4.645 3.337-4.674zm-18.399 3.631c-1.829.116-1.587-1.9-.523-2.497 1.19-.669 2.845-.233 2.845-.233s-.454 2.612-2.322 2.73zm2.294-9.624c-1.029 2.821-2.885 1.966-2.188-1.2.663-3.015 2.607-2.973 2.607-2.973s.283 2.249-.419 4.173zm12.638-.581c.676-.455 1.215-1.312 1.379-2.206.699-3.823-2.074-4.723-3.471-4.878-2.959-.329-5.867 2.146-6.166 6.384-.388 5.442 3.56 6.407 5.463 6.315 1.901-.094 4.062-.854 4.227-2.583s-1.872-1.734-2.148-1.452c-.277.281-.338 1.629-2.091 1.645-1.753.018-1.792-2.606-1.792-2.606s2.658.693 4.599-.619zm-2.292-4.283c1.071-.06.726 1.573-.107 2.465-.844.901-2.172 1.062-2.172 1.062s.12-3.407 2.279-3.527zm23.55 3.538c.467-5.159-.588-6.858-3.193-6.157-1.51.406-1.943 1.48-2.117 1.336-.174-.146.348-1.685-1.132-1.565-1.854.146-2.989.728-3.163 1.161-.13.322.32.668.475 2.639-.135.081-.274.16-.42.229l-.303.137c-.25-2.01-1.225-3.977-3.062-4.051-1.423-.06-1.538.871-1.886.844-.351-.029-.842-1.223-2.18-.467-1.479.84-2.38 2.875-2.521 5.867-.146 2.992 1.043 5.896 4.672 5.896 3.482 0 4.586-3.484 4.963-5.926.038-.244.059-.504.07-.768.179-.104.375-.229.564-.377l.146-.128c.004.414-.006.87-.028 1.388-.136 2.908-.929 5.521 1.597 5.723 2.205.175 2.672-.305 2.758-.58.117-.378-1.062.381-.957-4.531.076-3.628.111-4.664 1.451-4.27 1.385.408 1.104 2.729.93 5.083-.174 2.353-.465 4.015 1.134 4.219 1.596.203 2.987-.19 3.003-.608.018-.511-1.299.419-.801-5.094zm-15.004 3.485c-1.979-.569-.465-5.52-.465-5.52s.146 1.047 1.045 1.598c.609.375 1.451.35 1.451.35s-.117 4.124-2.031 3.572zm2.12-5.46s-.459-.179-.762-.636c-.304-.463-.445-1.209-.021-1.398.84-.377.783 2.034.783 2.034zm29.007-10.949c-.242-.843-.945-1.436-1.967-.77-1.021.667-1.235 1.019-1.709.972s-.558-.146-.418-.66c.137-.514.938-3.171.478-4.683-.462-1.512-2.931-3.784-4.356-6.225-1.427-2.442-1.812-3.632-2.123-4.759-.312-1.128-.572-.884-.725-.848-.15.037-.732.537-.211 2.375s1.174 2.723 1.068 2.949c-.106.226-1.348-.679-1.854-1.038s-.913-.221-1.069.038c-.158.258-.007.982 1.273 2.057 1.275 1.075 2.641 2.151 2.521 2.258-.113.108-.957-.311-1.776-.654-.824-.343-1.468-.429-1.603-.156s.672 1.461 1.725 2.17c1.052.709 1.242.843 1.186 1.018s-1.541.25-1.445.809c.094.558 1.541.831 1.592 1.12.049.289-1.454.87-1.295 1.533.158.663 1.424.793 1.466.963.04.17-.943.906-1.251 1.38-.307.475-.193 1.264.468 1.615.431.228.478.613.44.882-.035.269-.045 1.221.535 2.233.616 1.079.85 1.591.395 2.43-.258.473-.827 1.254-2.652 1.879-1.936.661-5.583 1.502-2.08 4.147 1.534 1.159 3.186 1.19 4.354-.201 1.166-1.394 1.568-3.414 2.953-4.114 2.22-1.119 5.053-2.757 5.019-4.799-.024-1.525-.122-2.204.343-2.646.467-.442 1.161-.039 1.25-.18.08-.14-.359-.495-.532-1.095zm-20.486.199c.252.518-.911.047-1.223.706-.213.45 1.599 1.377 2.474 1.592s1.454.455.37.703c-1.289.295.818 1.224 2.626 1.558.905.167.646.362.224.728-.74.64 1.729 1.59 2.854 1.693 1.896.182 2.88-.033 3.409-.307.703-.362.295-1.107-.205-2.021-.424-.775-.467-1.655-.523-2.262-.025-.291-.443-.539-.604-.878-.189-.409-.146-.692-.469-.99-.553-.511-2.082-.709-4.051-.993-1.966-.284-3.57-.942-4.929-1.764-1.354-.821-2.517-2.408-2.695-1.438-.313 1.673 2.49 3.155 2.742 3.673z"/></svg>