<svg xmlns="http://www.w3.org/2000/svg" width="61.75" height="37.5" viewBox="0 0 61.75 37.5"><path fill="#fff" d="M43.52.385c1.592 0 2.946.556 4.057 1.665 1.111 1.112 1.664 2.464 1.664 4.06v6.234h-9.309c-2.222-3.131-5.24-4.698-9.055-4.698-3.931 0-6.948 1.567-9.055 4.698h-9.312v-6.235c0-1.596.557-2.947 1.665-4.06 1.112-1.109 2.464-1.665 4.057-1.665l25.288.001zm-1.54 18.365c0-.74-.086-1.453-.256-2.134h7.514v14.69c0 1.596-.553 2.963-1.663 4.098-1.109 1.141-2.466 1.711-4.058 1.711h-25.285c-1.593 0-2.944-.57-4.057-1.711-1.108-1.135-1.665-2.502-1.665-4.098v-14.69h7.432c-.115.91-.171 1.623-.171 2.134 0 3.021 1.081 5.623 3.246 7.816 2.162 2.192 4.782 3.287 7.859 3.287 3.019 0 5.62-1.095 7.813-3.287 2.193-2.193 3.291-4.795 3.291-7.816zm-4.27 0c0 1.881-.671 3.489-2.01 4.827s-2.947 2.006-4.823 2.006c-1.881 0-3.49-.668-4.828-2.006-1.338-1.338-2.005-2.946-2.005-4.827 0-1.936.667-3.559 2.005-4.87 1.338-1.31 2.947-1.963 4.828-1.963 1.876 0 3.484.653 4.823 1.963 1.339 1.311 2.01 2.934 2.01 4.87zm8.54-11.275v-3.076c0-.682-.341-1.026-1.025-1.026h-3.072c-.686 0-1.024.345-1.024 1.026v3.075c0 .229.099.456.299.685.195.227.435.341.724.341h3.072c.685 0 1.026-.341 1.026-1.025z"/></svg>