<svg xmlns="http://www.w3.org/2000/svg" width="200" height="210" viewBox="0 0 200 210"><path fill="#303233" d="M-25.5-30h251v270h-251z"/><g fill="#F2F2F2"><path d="M48.843 90.553c7.979 0 14.447 6.469 14.447 14.447s-6.468 14.447-14.447 14.447c-7.979 0-14.447-6.469-14.447-14.447 0-7.979 6.467-14.447 14.447-14.447zm0 3.597c-5.992 0-10.85 4.856-10.85 10.85s4.856 10.85 10.85 10.85c5.991 0 10.85-4.856 10.85-10.85s-4.859-10.85-10.85-10.85zM48.843 96.689c4.589 0 8.31 3.722 8.31 8.311s-3.721 8.309-8.31 8.309-8.31-3.72-8.31-8.309 3.721-8.311 8.31-8.311zm-1.869 2.646c-2.558.34-4.367 2.598-4.043 5.045.104.78.41 1.485.865 2.072.489-1.31 1.356-2.667 2.556-3.882 1.175-1.188 2.491-2.062 3.771-2.57-.897-.557-2.003-.817-3.149-.665zm4.694 7.12c-.868.113-1.479.913-1.363 1.781.114.869.911 1.48 1.781 1.365.869-.115 1.48-.912 1.365-1.781-.115-.87-.913-1.48-1.783-1.365zM79.464 114.333h10.532v4.039h-15.426v-26.307h4.894v22.268zM100.147 99.415c1.177 0 2.26.188 3.248.563.987.377 1.84.925 2.556 1.646s1.272 1.607 1.674 2.656c.399 1.05.601 2.248.601 3.594 0 .339-.016.621-.045.846-.031.225-.086.4-.164.528-.078.127-.186.218-.318.271-.133.057-.303.082-.51.082h-11.535c.133 1.916.648 3.323 1.546 4.223.898.896 2.087 1.347 3.566 1.347.729 0 1.354-.086 1.883-.256.526-.17.988-.356 1.382-.563.395-.205.741-.395 1.038-.563s.584-.255.863-.255c.183 0 .34.035.475.109.133.071.246.176.345.31l1.31 1.637c-.496.582-1.056 1.071-1.674 1.466-.617.395-1.265.709-1.938.944-.674.235-1.357.403-2.055.501-.698.098-1.375.146-2.028.146-1.299 0-2.506-.217-3.621-.646-1.116-.43-2.086-1.066-2.911-1.91-.823-.842-1.473-1.885-1.945-3.129-.475-1.242-.71-2.684-.71-4.32 0-1.272.207-2.471.619-3.593.411-1.121 1.002-2.099 1.772-2.929.771-.831 1.71-1.489 2.82-1.976 1.109-.486 2.362-.729 3.756-.729zm.091 3.221c-1.309 0-2.335.37-3.074 1.108-.739.74-1.213 1.79-1.419 3.148h8.441c0-.582-.078-1.131-.236-1.646-.157-.517-.4-.968-.729-1.355-.326-.388-.74-.694-1.236-.919-.498-.225-1.08-.336-1.747-.336zM111.881 118.372v-18.665h2.748c.581 0 .964.271 1.146.816l.31 1.475c.377-.389.774-.739 1.192-1.057.418-.313.861-.586 1.326-.817.469-.229.969-.405 1.502-.526s1.115-.183 1.746-.183c1.02 0 1.922.173 2.711.519s1.446.831 1.976 1.455c.526.625.927 1.371 1.2 2.238.271.867.408 1.821.408 2.866v11.879h-4.494v-11.879c0-1.142-.264-2.023-.791-2.648-.526-.624-1.318-.937-2.373-.937-.776 0-1.504.176-2.184.526-.68.354-1.322.831-1.929 1.438v13.499h-4.494zM145.7 118.372c-.581 0-.965-.272-1.146-.817l-.363-1.803c-.389.438-.795.831-1.219 1.182-.427.354-.883.655-1.375.91-.49.256-1.018.452-1.582.592-.563.14-1.174.209-1.828.209-1.019 0-1.953-.211-2.801-.637-.851-.424-1.58-1.04-2.193-1.847-.611-.808-1.084-1.804-1.418-2.993-.334-1.188-.5-2.546-.5-4.074 0-1.383.188-2.668.562-3.857.375-1.188.916-2.219 1.619-3.092.704-.873 1.547-1.556 2.529-2.047.98-.491 2.086-.737 3.31-.737 1.045 0 1.937.168 2.675.501.74.333 1.401.779 1.983 1.338v-9.861h4.493v27.035l-2.746-.002zm-5.985-3.293c.935 0 1.729-.194 2.384-.583.655-.389 1.273-.939 1.855-1.655v-8.368c-.51-.618-1.064-1.056-1.664-1.31-.602-.255-1.246-.382-1.938-.382-.68 0-1.295.127-1.847.382-.553.254-1.019.64-1.399 1.153-.385.517-.678 1.173-.885 1.967-.205.795-.309 1.73-.309 2.811 0 1.092.088 2.018.264 2.773.176.759.428 1.377.756 1.855.328.479.728.825 1.2 1.037.472.214 1.001.32 1.583.32zM164.384 103.345c-.121.194-.248.331-.382.409-.134.079-.304.118-.51.118-.218 0-.452-.062-.7-.183l-.863-.408c-.328-.151-.701-.288-1.119-.409s-.912-.183-1.482-.183c-.887 0-1.582.188-2.092.562-.51.377-.764.869-.764 1.475 0 .399.129.737.391 1.01s.605.513 1.037.719c.43.207.918.393 1.465.556.546.164 1.104.343 1.673.537.569.193 1.129.415 1.675.663.545.249 1.033.564 1.465.946.43.382.775.84 1.036 1.372.261.535.392 1.179.392 1.93 0 .898-.164 1.727-.491 2.482-.327.76-.808 1.414-1.437 1.966-.632.552-1.41.981-2.34 1.291-.927.311-1.99.465-3.191.465-.644 0-1.271-.058-1.883-.173-.613-.116-1.201-.275-1.765-.482-.563-.206-1.087-.447-1.565-.729-.478-.279-.898-.582-1.265-.909l1.038-1.71c.132-.205.291-.364.473-.473.182-.109.412-.164.691-.164.277 0 .543.078.79.236.249.157.538.327.864.51.328.182.713.352 1.154.508.444.158 1.006.238 1.684.238.533 0 .992-.063 1.375-.191.381-.127.695-.293.943-.5.25-.206.433-.446.547-.719.115-.273.174-.556.174-.847 0-.437-.131-.794-.393-1.073-.26-.278-.605-.521-1.035-.729-.433-.206-.923-.391-1.475-.555-.552-.163-1.116-.344-1.691-.536-.576-.193-1.141-.423-1.691-.683-.553-.262-1.043-.592-1.475-.992-.432-.399-.775-.892-1.037-1.474-.26-.581-.392-1.284-.392-2.11 0-.765.151-1.491.456-2.184.303-.691.748-1.294 1.336-1.81s1.321-.929 2.202-1.237c.879-.31 1.896-.464 3.047-.464 1.285 0 2.455.212 3.511.637 1.055.425 1.935.982 2.639 1.675l-1.02 1.622z"/></g></svg>