<svg xmlns="http://www.w3.org/2000/svg" width="61.75" height="37.5" viewBox="0 0 61.75 37.5"><path fill="#fff" d="M20.851 4.606c0 1.088-.398 2.01-1.182 2.77-.789.763-1.811 1.141-3.059 1.141-1.194 0-2.176-.378-2.939-1.141-.756-.76-1.141-1.682-1.141-2.77 0-1.142.385-2.081 1.141-2.813.764-.733 1.772-1.101 3.019-1.101 1.248 0 2.243.368 2.979 1.101.73.733 1.128 1.672 1.182 2.813zm-8.075 32.203v-25.193h7.828v25.192h-7.828v.001zm12.473-17.121c0-2.335-.053-5.025-.159-8.07h6.768l.406 3.506h.164c1.627-2.717 4.206-4.077 7.743-4.077 2.72 0 4.903.912 6.562 2.733 1.66 1.822 2.488 4.525 2.488 8.112v14.918h-7.828v-13.941c0-3.643-1.328-5.465-3.994-5.465-1.905 0-3.231.979-3.994 2.936-.159.326-.246.979-.246 1.957v14.512h-7.909l-.001-17.121z"/></svg>