<svg xmlns="http://www.w3.org/2000/svg" width="200" height="210" viewBox="0 0 200 210"><path fill="#ACCDE1" d="M-28.167-6.5h255.333v219.333h-255.333v-219.333z"/><path fill="#8FB6CF" d="M-14.164 227.072c8.153-12.4 19.404-23.016 33.379-30.565 19.4-10.487 40.285-11.882 60.991-9.575 0 0 85.562 10.705 122.572-43.577l1.055-147.854h-210.667l-7.33 231.571z"/><path fill="#96BFD7" d="M202.203 120.935s-15.201 37.068-57.832 20.654c0 0-89.502-43.374-145.268 17.211l-5.936-163.3h208.667l.369 125.435z"/><path fill="#BBDAEB" d="M-20.916-5.914c0 46.881 38.008 84.889 84.893 84.889 20.202.004 38.75-7.055 53.324-18.838 0 0 57.18-50.484 128.005-54.002l1.194-16.635-267.416 4.586z"/><path fill="#5E5D5E" d="M58.037 85.335h77.842v52.44h-77.842v-52.44z"/><path fill="#fff" d="M64.183 92.3h65.959v39.2h-65.959v-39.2zm13.11-13.112h65.959v39.201h-65.959v-39.201z"/><path fill="#5E5D5E" d="M67.25 82.536h-16.239v-3.414h16.239l3.897.002v-3.485h-20.136v-3.414h97.977v52.44h-77.841v-41.259l-.022-.87h-3.875z"/><path fill="#fff" d="M77.497 79.189h65.96v39.202h-65.96v-39.202z"/><path fill="#EF836E" d="M100.545 95.167h19.766v3.622h-19.766v-3.622zm0 6.728h19.766v3.621h-19.766v-3.621zm36.293-8.067h-9.793v-7.387h9.793v7.387z"/><path fill="#333" d="M-98.333-100.083"/></svg>