<?xml version="1.0" encoding="utf-8"?>
<!-- Generator: Adobe Illustrator 16.0.4, SVG Export Plug-In . SVG Version: 6.00 Build 0)  -->
<!DOCTYPE svg PUBLIC "-//W3C//DTD SVG 1.1//EN" "http://www.w3.org/Graphics/SVG/1.1/DTD/svg11.dtd">
<svg version="1.1" id="Layer_1" xmlns="http://www.w3.org/2000/svg" xmlns:xlink="http://www.w3.org/1999/xlink" x="0px" y="0px"
	 width="220px" height="220px" viewBox="0 0 220 220" enable-background="new 0 0 220 220" xml:space="preserve">
<path fill="#FFFFFF" d="M79.769,110.711c-12.522,0-15.511,6.943-15.511,15.512c0,8.566,6.945,15.512,15.511,15.512
	s20.317-8.116,20.317-20.315C100.085,115.051,90.711,110.711,79.769,110.711z"/>
<path fill="#FFFFFF" d="M113.572,135.314c-1.971-3.416-5.2-3.416-7.173,0l-5.589,9.684c-1.971,3.414-0.357,6.209,3.587,6.209h11.177
	c3.945,0,5.559-2.795,3.586-6.209L113.572,135.314z"/>
<path fill="#FFFFFF" d="M140.205,110.711c-10.943,0-20.316,4.34-20.316,10.707c0,12.199,11.748,20.316,20.316,20.316
	c8.566,0,15.512-6.945,15.512-15.512C155.717,117.654,152.729,110.711,140.205,110.711z"/>
<path fill="#FFFFFF" d="M110,43.207c-34.196,0-61.921,27.695-61.921,61.92c0,6.152,0.251,23.292,3.374,42.704
	c1.396,8.688,9.174,15.084,17.116,15.084c0.506,0,1.011-0.024,1.518-0.078l9.67-1.014c0.202-0.021,0.4-0.027,0.593-0.027
	c2.759,0,4.473,2.119,3.885,4.978c0,0-0.462,2.244-1.032,5.01c-0.57,2.768,1.496,5.012,4.617,5.012h44.334
	c3.121,0,5.187-2.244,4.615-5.012l-1.026-5.01c-0.591-2.857,1.123-4.978,3.885-4.978c0.19,0,0.388,0.009,0.59,0.027
	c2.64,0.276,6.015,0.631,9.687,1.016c0.506,0.052,1.014,0.078,1.521,0.078c7.943,0,15.729-6.396,17.127-15.086
	c3.121-19.412,3.371-36.549,3.371-42.704C171.92,71.644,144.195,43.207,110,43.207z M151.422,154.725
	c-0.227,0-0.449-0.01-0.668-0.031l-9.684-1.016c-0.484-0.051-0.969-0.076-1.447-0.076c-3.771,0-7.24,1.601-9.512,4.39
	c-2.303,2.829-3.18,6.629-2.396,10.43l0.039,0.183h-3.278c-1.761,0-3.187-1.373-3.187-3.072v-3.072c0-1.256-1.021-2.273-2.274-2.273
	c-1.261,0-2.277,1.019-2.277,2.273c0,0,0,1.377,0,3.072c0,1.699-1.002,3.072-2.236,3.072c-1.24,0-2.242-1.373-2.242-3.072v-3.072
	c0-1.256-1.02-2.273-2.274-2.273c-1.257,0-2.275,1.019-2.275,2.273c0,0,0,1.377,0,3.072c0,1.699-1.002,3.072-2.24,3.072
	c-1.238,0-2.241-1.373-2.241-3.072v-3.072c0-1.256-1.019-2.273-2.274-2.273c-1.258,0-2.275,1.019-2.275,2.273c0,0,0,1.377,0,3.072
	c0,1.699-1.426,3.072-3.186,3.072h-3.278l0.038-0.183c0.783-3.801-0.09-7.601-2.396-10.43c-2.274-2.789-5.739-4.39-9.511-4.39
	c-0.477,0-0.965,0.025-1.446,0.076l-9.67,1.014c-0.218,0.021-0.44,0.031-0.665,0.031c-3.723,0-8.242-3.293-9.029-8.195
	c-2.844-17.688-3.268-33.532-3.268-41.4c0-14.362,5.588-27.858,15.736-38.001C82.152,56.981,95.646,51.397,110,51.397
	c14.262,0,27.745,5.675,37.969,15.981c4.947,4.984,8.83,10.752,11.547,17.15c2.795,6.581,4.215,13.51,4.215,20.598
	c0,7.868-0.426,23.711-3.27,41.403C159.672,151.432,155.152,154.725,151.422,154.725z"/>
</svg>
