<svg xmlns="http://www.w3.org/2000/svg" width="61.75" height="37.5" viewBox="0 0 61.75 37.5"><path fill="#fff" d="M3.134 28.992c0 .159-.195.237-.591.237-.242 0-.437-.078-.601-.237l-.833-4.172.833-4.283c.164-.159.358-.242.601-.242.396 0 .591.083.591.242l.959 4.283-.959 4.172zm6.076 2.258c0 .319-.242.479-.717.479s-.708-.16-.708-.479l-.717-6.43.717-9.878c0-.32.233-.48.708-.48s.717.16.717.48l.833 9.878-.833 6.43zm6.076-.116c0 .397-.282.596-.833.596-.562 0-.833-.16-.833-.479l-.602-6.43.602-13.217c0-.392.271-.591.833-.591.552 0 .833.199.833.591l.706 13.217-.706 6.313zm6.064 0c0 .397-.31.596-.95.596-.639 0-.95-.198-.95-.596l-.475-6.313.475-13.333c0-.397.311-.596.95-.596.64 0 .95.199.95.596l.601 13.333-.601 6.313zm6.076-.122c0 .48-.358.718-1.075.718-.63 0-.988-.237-1.066-.718l-.359-6.191.359-15.237c.155-.557.513-.833 1.066-.833.717 0 1.075.276 1.075.833l.475 15.237-.475 6.191zm4.281.717c-.551 0-.831-.276-.831-.833v-23.575c0-.397.242-.674.716-.833 1.434-.558 3.102-.833 5-.833 3.498 0 6.529 1.148 9.109 3.449 2.576 2.307 4.029 5.121 4.35 8.454.951-.396 1.938-.596 2.977-.596 2.062 0 3.846.737 5.355 2.205 1.504 1.469 2.258 3.198 2.258 5.18 0 2.063-.754 3.832-2.258 5.3-1.51 1.469-3.293 2.2-5.355 2.2l-21.321-.118z"/></svg>