<svg xmlns="http://www.w3.org/2000/svg" width="200" height="210" viewBox="0 0 200 210"><path fill="#006D62" d="M-21.5-14.5h243v239h-243v-239z"/><circle fill="#00857F" cx="100" cy="105" r="48.784"/><path fill="#fff" d="M72.735 128.439c-9.401 0-14.588-6.229-15.171-12.582h5.706c.52 3.697 3.631 7.328 9.465 7.328 5.966 0 9.985-4.278 9.985-10.183 0-5.896-3.824-10.113-9.466-10.113-3.631 0-7.131 2.073-9.207 5.124l-4.864-1.883 2.983-23.473h23.341v5.252h-18.477l-1.685 12.514c2.139-1.621 5.187-2.723 8.428-2.723 8.495 0 14.394 6.419 14.394 15.301 0 9.536-7.132 15.438-15.432 15.438zm18.349-36.699v-4.28c3.824-.129 6.743-1.427 7.067-4.798h5.058v44.998h-5.51v-35.92h-6.615zm34.883 36.699c-8.105 0-12.904-4.865-14.137-10.828h5.643c.844 2.916 3.502 5.642 8.562 5.642 8.229 0 10.564-8.626 11.088-15.89-1.812 3.244-6.555 5.514-10.896 5.514-8.883 0-15.303-6.55-15.303-15.626 0-9.207 6.486-15.69 15.238-15.69 5.574 0 10.113 2.658 12.9 7.196 2.465 4.021 3.373 8.494 3.373 14.849.001 15.561-5.642 24.833-16.468 24.833zm.26-41.823c-5.836 0-9.791 4.281-9.791 10.635 0 6.159 3.76 10.633 9.791 10.633 6.029 0 9.984-4.474 9.984-10.633 0-6.03-4.086-10.635-9.984-10.635z"/></svg>