<?xml version="1.0" encoding="utf-8"?>
<!-- Generator: Adobe Illustrator 16.0.4, SVG Export Plug-In . SVG Version: 6.00 Build 0)  -->
<!DOCTYPE svg PUBLIC "-//W3C//DTD SVG 1.1//EN" "http://www.w3.org/Graphics/SVG/1.1/DTD/svg11.dtd">
<svg version="1.1" id="Layer_1" xmlns="http://www.w3.org/2000/svg" xmlns:xlink="http://www.w3.org/1999/xlink" x="0px" y="0px"
	 width="200px" height="210px" viewBox="0 0 200 210" enable-background="new 0 0 200 210" xml:space="preserve">
<path fill="#5472CC" d="M-29.5-24.5h259v259h-259V-24.5z"/>
<path fill="#FFFFFF" d="M67.788,56.679c-8.86,0-16.107,7.249-16.107,16.107v64.427c0,8.861,7.247,16.107,16.107,16.107h64.423
	c8.861,0,16.107-7.246,16.107-16.107V72.786c0-8.858-7.246-16.107-16.107-16.107H67.788z"/>
<path fill="#5472CC" d="M69.252,130.623V79.377c0-2.818,2.306-5.122,5.121-5.122h51.253c2.813,0,5.119,2.304,5.119,5.122v51.246
	c0,2.816-2.306,5.121-5.119,5.121H74.374C71.559,135.744,69.252,133.439,69.252,130.623"/>
<path fill="#FFFFFF" d="M89.75,91.823c-1.612,0-2.928,1.318-2.928,2.93v20.493c0,1.611,1.316,2.93,2.928,2.93h20.499
	c1.61,0,2.931-1.318,2.931-2.93V94.753c0-1.611-1.318-2.93-2.931-2.93H89.75z"/>
</svg>
