<svg xmlns="http://www.w3.org/2000/svg" width="200" height="210" viewBox="0 0 200 210"><path fill="#2A2A2A" d="M-9.667-14.667h219.334v239.334h-219.334z"/><path fill="#FF2B06" d="M39.251 114.527l-.974-1.404h.928l.521.773.516-.773h.898l-.973 1.385 1.094 1.574h-.928l-.619-.932-.618.932h-.911l1.066-1.555z"/><path fill="#fff" d="M45.118 114.33h-2.895v-.611h2.895v.611zm0 1.227h-2.895v-.613h2.895v.613zM47.333 112.664h-.813v-.67h.813v.67zm-.814.459h.813v2.959h-.813v-2.959zM47.86 113.123h.772v.412h.018c.205-.334.561-.492.904-.492.863 0 1.082.486 1.082 1.219v1.82h-.813v-1.672c0-.486-.143-.727-.521-.727-.44 0-.63.246-.63.848v1.551h-.812v-2.959zM53.253 115.705h-.011c-.191.32-.523.457-.9.457-.894 0-1.328-.766-1.328-1.586 0-.795.441-1.533 1.312-1.533.351 0 .693.148.882.439h-.006.011v-1.488h.814v4.088h-.773l-.001-.377zm-.711-2.049c-.531 0-.715.457-.715.943 0 .465.213.948.715.948.539 0 .7-.467.7-.955.001-.479-.171-.936-.7-.936zM55.195 114.801c.022.516.275.748.728.748.327 0 .59-.199.641-.383h.717c-.229.699-.717.996-1.387.996-.934 0-1.512-.641-1.512-1.555 0-.89.613-1.564 1.512-1.564 1.008 0 1.495.848 1.438 1.758h-2.137zm1.323-.516c-.074-.414-.253-.629-.649-.629-.515 0-.661.398-.674.629h1.323zM57.697 113.123h.773v.377h.012c.194-.314.515-.457.882-.457.928 0 1.348.75 1.348 1.592 0 .791-.438 1.527-1.303 1.527-.354 0-.693-.152-.887-.445h-.012v1.408h-.813v-4.002zm2.199 1.486c0-.469-.188-.953-.71-.953-.531 0-.704.475-.704.953 0 .483.183.938.71.938.532.002.704-.453.704-.938zM61.752 114.801c.021.516.274.748.727.748.326 0 .59-.199.642-.383h.716c-.229.699-.716.996-1.386.996-.933 0-1.511-.641-1.511-1.555 0-.89.611-1.564 1.511-1.564 1.007 0 1.494.848 1.438 1.758h-2.137zm1.322-.516c-.072-.414-.251-.629-.647-.629-.515 0-.662.398-.674.629h1.321zM64.254 113.123h.773v.412h.017c.208-.334.562-.492.905-.492.864 0 1.082.486 1.082 1.219v1.82h-.812v-1.672c0-.486-.145-.727-.522-.727-.44 0-.628.246-.628.848v1.551h-.814l-.001-2.959zM69.65 115.705h-.012c-.189.32-.521.457-.901.457-.892 0-1.327-.766-1.327-1.586 0-.795.44-1.533 1.312-1.533.348 0 .693.148.881.439h-.006.014v-1.488h.812v4.088h-.773v-.377zm-.71-2.049c-.533 0-.717.457-.717.943 0 .465.211.948.717.948.537 0 .698-.467.698-.955 0-.479-.174-.936-.698-.936zM71.59 114.801c.021.516.274.748.728.748.326 0 .591-.199.641-.383h.716c-.229.699-.716.996-1.386.996-.933 0-1.513-.641-1.513-1.555 0-.89.613-1.564 1.513-1.564 1.008 0 1.496.848 1.437 1.758h-2.136zm1.323-.516c-.073-.414-.253-.629-.646-.629-.517 0-.666.398-.677.629h1.323zM74.093 113.123h.771v.412h.018c.207-.334.563-.492.906-.492.864 0 1.082.486 1.082 1.219v1.82h-.813v-1.672c0-.486-.143-.727-.521-.727-.44 0-.629.246-.629.848v1.551h-.813l-.001-2.959zM78.404 113.123h.596v.543h-.596v1.467c0 .273.069.344.344.344l.252-.022v.637c-.137.021-.313.029-.475.029-.497 0-.933-.115-.933-.705v-1.748h-.493v-.543h.493v-.89h.812v.888zM79.298 111.994h.812v4.088h-.812v-4.088zM82.097 116.455c-.175.475-.457.67-1.02.67l-.497-.027v-.672c.155.012.316.035.476.029.281-.029.372-.32.281-.555l-1.043-2.777h.871l.67 2.027h.01l.648-2.027h.841l-1.237 3.332zM86.41 113.043c.935 0 1.536.617 1.536 1.564 0 .938-.602 1.555-1.536 1.555-.928 0-1.528-.617-1.528-1.555-.001-.947.6-1.564 1.528-1.564zm0 2.506c.558 0 .724-.475.724-.941 0-.477-.166-.95-.724-.95-.548 0-.715.475-.715.95 0 .466.167.941.715.941zM88.244 113.123h.773v.549h.011c.148-.373.549-.629.943-.629l.18.027v.756l-.293-.027c-.596 0-.801.43-.801.951v1.332h-.813v-2.959zM93.202 115.895c0 .486-.171 1.312-1.534 1.312-.583 0-1.265-.274-1.305-.951h.808c.073.306.32.408.606.408.451 0 .658-.31.652-.731v-.392h-.01c-.18.312-.533.459-.89.459-.886 0-1.267-.676-1.267-1.49 0-.768.442-1.465 1.272-1.465.391 0 .688.131.884.476h.01v-.396h.772v2.771h.002zm-.773-1.329c0-.482-.165-.91-.692-.91-.459 0-.658.398-.658.84 0 .424.16.889.658.889.463 0 .692-.395.692-.819zM93.592 114.033c.046-.764.728-.99 1.392-.99.591 0 1.301.131 1.301.842v1.541c0 .268.028.537.104.656h-.826l-.058-.285c-.258.27-.637.365-.996.365-.562 0-1.008-.279-1.008-.887 0-.668.503-.83 1.008-.9.498-.072.962-.055.962-.389 0-.348-.24-.4-.526-.4-.311 0-.511.127-.538.447h-.815zm1.878.602c-.137.121-.423.127-.676.17-.252.053-.481.139-.481.437 0 .305.235.379.5.379.635 0 .657-.504.657-.681v-.305zM96.799 113.123h.773v.412h.016c.208-.334.562-.492.907-.492.864 0 1.081.486 1.081 1.219v1.82h-.814v-1.672c0-.486-.141-.727-.52-.727-.441 0-.63.246-.63.848v1.551h-.813v-2.959zM100.801 112.664h-.81v-.67h.81v.67zm-.81.459h.81v2.959h-.81v-2.959zM101.145 115.471l1.541-1.734h-1.426v-.612h2.496v.612l-1.539 1.734h1.648v.611h-2.721v-.611h.001zM104.857 114.801c.021.516.274.748.727.748.328 0 .59-.199.643-.383h.715c-.231.699-.715.996-1.385.996-.936 0-1.514-.641-1.514-1.555 0-.89.613-1.564 1.514-1.564 1.006 0 1.492.848 1.437 1.758h-2.137zm1.321-.516c-.072-.414-.252-.629-.646-.629-.517 0-.664.398-.675.629h1.321zM109.473 115.705h-.014c-.188.32-.52.457-.896.457-.893 0-1.33-.766-1.33-1.586 0-.795.441-1.533 1.312-1.533.348 0 .691.148.883.439h-.008.012v-1.488h.814v4.088h-.773v-.377zm-.711-2.049c-.533 0-.717.457-.717.943 0 .465.213.948.717.948.541 0 .697-.467.697-.955 0-.479-.17-.936-.697-.936zM113.211 112.75h-1.225v-.756h3.35v.756h-1.227v3.332h-.898v-3.332zM115.691 111.994h3.059v.756h-2.16v.877h1.982v.699h-1.982v1.002h2.205v.754h-3.104v-4.088zM119.172 111.994h1.764c1.062 0 1.857.666 1.857 2.021 0 1.186-.609 2.065-1.857 2.065h-1.764v-4.086zm.9 3.334h.801c.523 0 1.021-.322 1.021-1.227 0-.826-.289-1.353-1.183-1.353h-.642v2.579h.003zM125.363 114.801c.023.516.273.748.729.748.324 0 .588-.199.639-.383h.718c-.229.699-.718.996-1.386.996-.934 0-1.512-.641-1.512-1.555 0-.89.613-1.564 1.512-1.564 1.008 0 1.496.848 1.438 1.758h-2.138zm1.323-.516c-.072-.414-.252-.629-.647-.629-.513 0-.662.398-.675.629h1.322zM129.389 116.082h-.902l-1.016-2.959h.854l.623 2.02h.012l.623-2.02h.81l-1.004 2.959zM131.17 114.801c.023.516.275.748.727.748.328 0 .59-.199.644-.383h.715c-.229.699-.715.996-1.385.996-.935 0-1.515-.641-1.515-1.555 0-.89.613-1.564 1.515-1.564 1.008 0 1.496.848 1.438 1.758h-2.139zm1.324-.516c-.076-.414-.252-.629-.648-.629-.516 0-.664.398-.676.629h1.324zM133.672 113.123h.775v.412h.016c.207-.334.561-.492.904-.492.865 0 1.084.486 1.084 1.219v1.82h-.814v-1.672c0-.486-.143-.727-.521-.727-.438 0-.63.246-.63.848v1.551h-.813l-.001-2.959zM137.986 113.123h.596v.543h-.596v1.467c0 .273.068.344.344.344l.252-.022v.637c-.139.021-.316.029-.477.029-.5 0-.935-.115-.935-.705v-1.748h-.491v-.543h.491v-.89h.813v.889h.003z"/><g fill="#FF2B06"><path d="M41.703 98.466h-3.815v-3.49h11.824v3.49h-3.816v10.125h-4.192l-.001-10.125zM50.361 94.976h11.477v3.49h-7.282v1.695h7.282v3.244h-7.282v1.695h7.284v3.491h-11.479v-13.615zM62.543 94.976h6.883c4.539 0 6.141 3.355 6.141 6.788 0 4.177-2.211 6.828-6.959 6.828h-6.064l-.001-13.616zm4.195 10.125h1.64c2.615 0 2.996-2.117 2.996-3.396 0-.856-.268-3.239-3.301-3.239h-1.335v6.635z"/></g><path fill="#FF2B06" d="M81.596 103.344l-1.28-2.122-1.246 2.122h-3.075l2.918-4.29-2.81-4.105h3.074l1.139 2.029 1.173-2.029h3.072l-2.809 4.105 2.918 4.29h-3.074z"/><g enable-background="new" fill="#fff"><path d="M87.99 95.012h5.419c1.84 0 3.267.662 4.281 1.984.905 1.194 1.357 2.723 1.357 4.588 0 1.439-.268 2.74-.802 3.903-.941 2.056-2.559 3.083-4.854 3.083h-5.401v-13.558zm5.059 11.989c.607 0 1.107-.064 1.498-.193.698-.24 1.269-.701 1.714-1.385.355-.548.611-1.249.767-2.104.09-.511.136-.984.136-1.421 0-1.68-.327-2.984-.979-3.913-.653-.93-1.704-1.395-3.154-1.395h-3.186v10.411h3.204zM107.441 98.958c.654.329 1.152.755 1.495 1.278.33.498.55 1.079.66 1.744.099.455.147 1.182.147 2.178h-7.19c.03 1.006.266 1.812.705 2.421.44.607 1.12.911 2.042.911.861 0 1.548-.287 2.061-.862.287-.333.49-.72.61-1.159h1.634c-.043.363-.187.768-.43 1.214-.242.446-.514.811-.812 1.094-.502.492-1.121.824-1.859.997-.398.099-.847.147-1.348.147-1.223 0-2.259-.447-3.109-1.343-.85-.896-1.274-2.148-1.274-3.761 0-1.588.429-2.877 1.284-3.867.855-.991 1.975-1.486 3.357-1.486.697 0 1.373.165 2.027.494zm.595 3.881c-.067-.72-.223-1.295-.467-1.726-.452-.8-1.205-1.2-2.261-1.2-.756 0-1.391.275-1.903.826s-.784 1.25-.814 2.1h5.445zM112.245 95.012h6.067c1.199 0 2.168.341 2.904 1.021.738.68 1.107 1.635 1.107 2.865 0 1.059-.33 1.98-.988 2.765s-1.664 1.177-3.021 1.177h-4.233v5.731h-1.837v-13.559zm7.124 1.864c-.403-.19-.956-.286-1.658-.286h-3.629v4.698h3.629c.818 0 1.482-.175 1.992-.526.51-.351.766-.969.766-1.854 0-.998-.367-1.675-1.1-2.032zM129.754 102.588c.381-.049.637-.209.766-.479.074-.148.111-.361.111-.64 0-.568-.201-.98-.604-1.237-.402-.256-.979-.384-1.728-.384-.866 0-1.479.234-1.843.705-.202.26-.334.646-.396 1.159h-1.55c.029-1.222.425-2.072 1.184-2.55.76-.479 1.64-.718 2.641-.718 1.162 0 2.105.222 2.831.665.719.442 1.079 1.132 1.079 2.067v5.694c0 .173.035.312.105.416s.22.156.447.156l.25-.014.295-.042v1.228c-.258.074-.455.12-.591.139s-.319.027-.554.027c-.572 0-.987-.203-1.246-.608-.135-.216-.23-.521-.286-.914-.339.443-.825.828-1.458 1.153-.634.326-1.332.489-2.096.489-.916 0-1.666-.278-2.247-.834s-.872-1.252-.872-2.088c0-.916.286-1.625.858-2.129s1.323-.814 2.252-.932l2.652-.329zm-3.498 4.488c.35.276.766.414 1.246.414.584 0 1.15-.135 1.697-.405.924-.448 1.385-1.183 1.385-2.202v-1.336c-.203.129-.463.237-.783.323-.318.087-.633.148-.939.186l-1.004.129c-.602.08-1.055.206-1.357.378-.514.288-.771.749-.771 1.381-.001.478.174.856.526 1.132zM136.629 98.686v6.562c0 .504.078.917.234 1.236.287.591.824.886 1.609.886 1.126 0 1.894-.517 2.301-1.55.222-.554.333-1.314.333-2.28v-4.854h1.661v9.885h-1.569l.019-1.458c-.212.375-.475.692-.788.95-.622.517-1.377.775-2.265.775-1.383 0-2.324-.471-2.825-1.412-.271-.504-.407-1.178-.407-2.021v-6.719h1.697zM145.527 95.012h1.661v13.559h-1.661v-13.559zM151.886 95.012v8.381c0 .984.187 1.803.559 2.455.552.984 1.482 1.477 2.791 1.477 1.569 0 2.636-.532 3.2-1.597.304-.578.456-1.356.456-2.335v-8.381h1.854v7.614c0 1.668-.225 2.951-.676 3.85-.827 1.637-2.39 2.455-4.687 2.455s-3.855-.818-4.677-2.455c-.451-.898-.676-2.182-.676-3.85v-7.614h1.856z"/></g></svg>