<svg xmlns="http://www.w3.org/2000/svg" width="200" height="210" viewBox="0 0 200 210"><path fill="#F0F0F2" d="M-21.5-14.5h243v239h-243v-239z"/><path fill="#92CDDC" d="M90.199 108.642l-2.875.012.025 8.15-.433.002c-.263-.262-.48-.438-.647-.537-.167-.094-.43-.143-.791-.142-.432.002-.868.118-1.311.347-.442.23-.956.489-1.542.776-.587.292-1.274.55-2.063.778-.791.229-1.747.35-2.874.353-1.7.007-3.211-.271-4.529-.827-1.319-.559-2.592-1.447-3.819-2.666-1.201-1.193-2.199-2.602-2.995-4.229-.794-1.626-1.194-3.455-1.202-5.492-.003-1.364.147-2.592.455-3.682.306-1.09.682-2.044 1.123-2.861.439-.815.894-1.5 1.357-2.053.466-.55.853-.984 1.164-1.297 1.074-1.083 2.305-1.959 3.692-2.635 1.388-.675 2.966-1.016 4.739-1.021.911-.003 1.659.067 2.247.209.586.14 1.096.301 1.528.479l1.169.482c.346.141.736.21 1.168.209.479 0 .82-.069 1.023-.202.205-.13.401-.316.592-.558l.539-.001.022 7.185-.397.001c-.096-.622-.284-1.353-.561-2.19-.281-.836-.713-1.639-1.302-2.403-.591-.765-1.371-1.41-2.342-1.934-.972-.523-2.212-.782-3.72-.778-1.797.005-3.237.385-4.324 1.145-1.088.758-1.935 1.753-2.541 2.989-.606 1.235-1.011 2.631-1.208 4.19-.2 1.556-.294 3.125-.289 4.707.003 1.079.054 2.155.154 3.231.099 1.077.264 2.094.495 3.051.23.957.55 1.846.96 2.655.409.812.938 1.509 1.587 2.081.72.643 1.464 1.089 2.233 1.339.767.247 1.762.371 2.983.367.743-.002 1.484-.133 2.225-.388.743-.254 1.406-.629 1.992-1.137.586-.507 1.062-1.146 1.431-1.926s.552-1.693.549-2.75l-.01-3.018-4.634.017-.002-.505 10.958-.035.001.512zm1.788 8.65l2.767-.01-.047-14.405-2.766.009-.002-.503 5.785-.019.012 3.627h.071c.095-.359.249-.766.461-1.223.214-.457.514-.896.896-1.315.381-.42.841-.775 1.38-1.064.535-.288 1.188-.436 1.955-.438.553-.002 1.029.085 1.439.265.404.179.742.405 1.006.679.266.275.459.592.582.95.119.358.182.717.182 1.078.004.791-.176 1.317-.533 1.583-.359.264-.777.395-1.256.396-1.057.004-1.584-.328-1.584-.997-.002-.216.02-.392.068-.524l.16-.397c.061-.131.111-.281.162-.447.047-.167.068-.408.066-.718-.004-.767-.424-1.148-1.264-1.145-.385.001-.789.146-1.219.436-.431.289-.832.709-1.201 1.261-.369.553-.679 1.217-.928 1.998-.249.779-.373 1.67-.37 2.676l.027 8.227 3.125-.01.004.504-8.982.028.004-.502zm30.822.007c-.311.242-.682.454-1.107.632-.436.185-.957.272-1.58.276-1.152.003-1.986-.242-2.502-.729-.52-.487-.871-1.176-1.066-2.061h-.07c-.096.215-.225.484-.393.809-.168.325-.424.638-.77.938-.348.299-.809.553-1.379.757-.574.207-1.309.311-2.191.312-1.006.005-1.811-.107-2.408-.332-.6-.227-1.066-.504-1.402-.84-.338-.334-.561-.711-.668-1.129-.109-.418-.166-.812-.166-1.166-.004-.84.162-1.511.496-2.016s.768-.906 1.309-1.207c.537-.303 1.137-.551 1.795-.74.656-.195 1.318-.402 1.99-.619.791-.267 1.441-.492 1.957-.688.516-.19.912-.431 1.201-.705s.482-.625.59-1.043c.105-.417.158-.987.156-1.706-.004-.573-.041-1.088-.113-1.544-.072-.455-.209-.844-.398-1.167-.193-.322-.471-.568-.828-.735-.361-.165-.84-.249-1.439-.247-.789.002-1.443.142-1.957.419-.516.278-.77.727-.768 1.35 0 .408.039.808.115 1.205.068.392.107.688.109.878.002.335-.119.62-.357.847-.24.229-.586.342-1.039.342-.793.006-1.285-.137-1.479-.425-.191-.286-.287-.657-.289-1.11-.002-.527.115-1.031.354-1.51.24-.479.592-.905 1.059-1.277.463-.374 1.051-.668 1.756-.888.705-.218 1.516-.329 2.426-.332 1.104-.002 2.021.133 2.77.403.742.274 1.344.643 1.799 1.109.457.464.783.989.977 1.577.191.586.291 1.203.293 1.85l.027 8.943c.004.694.113 1.162.33 1.401.215.239.525.357.934.357.266-.003.541-.052.828-.15.287-.095.561-.237.824-.43l.274.391zm-6.313-8.386l-.07.002c-.051.311-.441.622-1.184.938l-2.689 1.088c-.764.312-1.352.754-1.756 1.315-.406.563-.607 1.269-.604 2.104.002.359.035.729.109 1.109.072.387.207.728.395 1.026.193.298.465.542.812.729.352.189.799.287 1.35.285.791-.004 1.43-.173 1.92-.513.49-.335.861-.754 1.109-1.261.252-.502.414-1.049.496-1.637.084-.586.125-1.119.123-1.6l-.014-3.592.003.007zm22.467 4.777c-.07.264-.207.641-.406 1.133-.205.492-.525.984-.967 1.475-.441.494-1.039.928-1.793 1.303-.754.373-1.729.562-2.926.565-.912.003-1.857-.138-2.842-.424-.982-.286-1.885-.743-2.697-1.377-.816-.63-1.484-1.458-2.004-2.486-.521-1.028-.779-2.299-.785-3.808-.004-1.174.215-2.266.654-3.272.438-1.006 1.035-1.88 1.789-2.625.75-.746 1.637-1.329 2.652-1.751 1.014-.421 2.1-.634 3.246-.639.646-.002 1.312.072 1.994.228.686.153 1.311.39 1.875.71.561.32 1.031.741 1.402 1.253.373.516.562 1.143.562 1.884.004.504-.158.916-.48 1.24-.322.322-.779.486-1.379.489-.406 0-.799-.088-1.168-.266-.373-.179-.562-.483-.562-.911 0-.339.086-.746.25-1.224.166-.481.25-.875.248-1.186-.002-.551-.281-.974-.83-1.271-.555-.298-1.189-.445-1.906-.442-.527 0-1.072.07-1.635.203-.564.134-1.076.465-1.545.994-.461.528-.846 1.32-1.141 2.375-.297 1.055-.438 2.494-.432 4.312.004 1.03.068 2 .205 2.908.133.912.375 1.706.725 2.389.352.68.832 1.219 1.443 1.609.611.395 1.41.589 2.391.587 1.055-.005 1.924-.163 2.604-.479.68-.31 1.219-.688 1.615-1.135.393-.441.686-.896.875-1.351.188-.456.332-.828.428-1.116l.54.106zm6.486-4.977c0 .239-.006.487-.018.737-.012.254-.018.57-.018.951.002.791.053 1.617.15 2.479.1.862.311 1.639.637 2.332.322.694.807 1.268 1.439 1.721.637.451 1.484.676 2.537.672s1.922-.16 2.604-.478c.684-.31 1.219-.69 1.613-1.135.395-.443.686-.896.877-1.351.188-.453.33-.826.426-1.115l.537.104c-.068.269-.209.644-.408 1.134-.201.49-.521.984-.965 1.477-.441.492-1.037.927-1.793 1.301-.754.371-1.729.562-2.926.566-1.199.004-2.309-.187-3.324-.562-1.02-.382-1.9-.934-2.646-1.646-.744-.719-1.32-1.569-1.734-2.562-.412-.989-.617-2.104-.621-3.321-.004-1.053.201-2.078.619-3.072.414-.994.986-1.876 1.715-2.646.73-.768 1.584-1.387 2.562-1.857.982-.47 2.033-.707 3.162-.711.668-.001 1.387.116 2.154.353.768.236 1.479.624 2.143 1.162.66.536 1.213 1.249 1.658 2.129.445.886.672 1.984.678 3.3l-11.058.038zm7.401-.526c.047-.334.066-.646.066-.937l-.002-.896c-.002-.814-.084-1.486-.242-2.013-.156-.526-.373-.946-.648-1.255-.275-.31-.611-.53-1.008-.662-.395-.13-.822-.195-1.275-.193-.811.003-1.484.168-2.01.491-.523.324-.943.765-1.252 1.317-.311.552-.541 1.185-.697 1.907-.152.719-.254 1.472-.297 2.262l7.365-.021z"/><path d="M46.132 98.179h-.032c-.016-.196-.071-.324-.171-.378-.099-.057-.221-.086-.366-.086l-.596.002.009 2.518c.001.212.109.323.326.328v.033l-.953.003v-.033c.088-.003.164-.03.225-.079.062-.052.094-.134.092-.253l-.008-2.518-.596.002c-.146 0-.267.029-.364.088-.099.057-.157.185-.172.38h-.031l-.003-.733h.031l.058.075.063.042.093.025.121.006 1.94-.006c.13 0 .23-.052.301-.15h.031l.002.734zm1.337-.588v.035c-.087 0-.165.024-.226.077-.063.05-.095.134-.095.252l.007 2.275c0 .114.034.2.101.251.067.053.14.077.22.077v.033l-.95.002v-.033c.089 0 .162-.026.225-.077.064-.052.095-.137.095-.255l-.007-2.275c0-.124-.032-.21-.096-.257l-.226-.067v-.035l.952-.003zm3.664-.011v.035l-.122.018-.081.042-.087.101-.02.162v.037l.111 2.226c.002.096.026.174.068.243.043.069.135.102.275.103v.033l-.973.003v-.033c.127-.015.214-.051.259-.114.043-.06.062-.153.057-.281l-.112-2.303h-.01l-1.048 2.733-1.009-2.626h-.01l-.102 2.125.022.271.097.136.192.063v.033l-.754.002v-.033c.096 0 .17-.024.218-.069l.099-.167.033-.277.114-2.197-.024-.042-.06-.063-.068-.05-.12-.051-.144-.012v-.034l.697-.002.936 2.449.935-2.456.631-.005zm.55.031v-.035l1.786-.005.002.472h-.028c0-.251-.169-.376-.506-.376l-.625.002.004 1.361h.548c.111 0 .207-.021.291-.055.086-.035.134-.116.146-.242h.03l.002.679h-.029l-.069-.179-.101-.081-.09-.021-.153-.012-.576.001.003 1.065.046.208c.03.058.101.086.211.085l.446-.001c.107 0 .196-.017.265-.048l.162-.131.1-.201h.03l-.102.471-1.785.005v-.033h.039c.064 0 .127-.025.188-.078.061-.051.092-.135.091-.251l-.006-2.26c0-.091-.021-.171-.063-.24-.042-.068-.113-.102-.216-.102l-.041.002zm2.246 2.924h.042c.072 0 .135-.03.194-.086.057-.058.084-.14.084-.245l-.007-2.263c0-.124-.031-.21-.096-.259-.064-.05-.137-.075-.226-.078v-.034l.958-.003v.034c-.084.003-.16.029-.223.078-.064.048-.098.136-.097.263l.009 2.188c0 .13.033.22.098.27.065.051.172.075.32.074l.257-.001.269-.04.162-.126.119-.236h.033l-.112.493-1.783.006v-.036l-.001.001zm2.28-2.938v-.034l1.786-.006.002.472h-.029c-.001-.251-.169-.377-.506-.376l-.625.002.004 1.362.55-.002c.109 0 .207-.019.29-.054.086-.035.134-.116.147-.243h.028l.002.68h-.028l-.07-.179-.101-.081-.089-.022-.154-.011-.577.001.003 1.065.048.209c.028.058.101.085.212.085l.445-.001c.108 0 .197-.018.265-.047l.164-.132.098-.202h.027l-.1.472-1.786.005v-.033h.04c.063 0 .127-.025.188-.077.06-.051.091-.136.091-.253l-.007-2.258c0-.092-.021-.171-.062-.239-.043-.067-.115-.102-.218-.102l-.038-.001zm3.771.528h-.03c-.02-.146-.083-.271-.192-.382-.107-.109-.251-.163-.428-.163-.116 0-.216.028-.306.083-.088.055-.157.126-.206.22-.05.094-.072.203-.072.321l.044.251.131.19.203.157.313.181c.219.12.393.238.514.359.123.117.185.283.186.493 0 .126-.032.25-.098.368-.065.117-.165.216-.298.292-.134.076-.297.115-.494.116-.122 0-.233-.013-.327-.039l-.292-.11-.083-.021-.056.031-.034.133h-.033l-.003-.75h.036c.05.218.143.384.286.496.141.113.314.169.516.168.153 0 .273-.028.364-.086.094-.058.156-.127.189-.208l.053-.247c0-.167-.053-.304-.154-.413-.102-.106-.258-.213-.47-.324l-.321-.181-.21-.169c-.069-.067-.129-.151-.17-.245-.042-.095-.063-.203-.064-.324 0-.141.036-.275.111-.406.073-.128.178-.232.315-.311.134-.077.292-.117.468-.119.131 0 .264.022.404.068l.086.017.093-.092h.03l.002.644-.003.002zm2.152-.004h-.03c-.02-.147-.084-.271-.192-.382-.107-.109-.251-.163-.428-.162-.115 0-.216.026-.306.083-.091.055-.159.127-.207.22-.05.094-.073.202-.072.323l.044.25.13.191.204.157.312.18c.219.12.394.238.515.36.122.118.185.284.186.494 0 .126-.033.25-.099.369-.066.117-.164.217-.297.293-.133.077-.297.115-.494.115-.122 0-.233-.013-.327-.039l-.292-.111-.084-.021-.055.031-.035.133h-.036l-.002-.75h.035c.05.217.143.384.286.496.142.114.314.168.515.168.154 0 .274-.028.366-.086.092-.058.155-.126.19-.209l.052-.246c0-.167-.053-.305-.155-.412-.103-.106-.258-.213-.47-.324l-.32-.181-.211-.168c-.068-.068-.128-.151-.169-.245-.043-.095-.065-.204-.065-.325 0-.141.037-.275.112-.405.073-.128.178-.232.316-.312.135-.076.291-.117.465-.117.132 0 .266.021.406.067l.087.018.093-.094h.03l.002.641z"/></svg>