<svg xmlns="http://www.w3.org/2000/svg" width="61.75" height="37.5" viewBox="0 0 61.75 37.5"><path fill="#00A0D1" d="M53.34 4.834c-1.177 1.757-2.703 3.354-4.595 4.785v1.172c0 4.233-.979 8.302-2.927 12.209-1.955 3.906-4.982 7.213-9.084 9.912-4.103 2.703-8.822 4.055-14.165 4.055-5.21 0-9.928-1.369-14.16-4.102.452.062 1.204.1 2.245.1 4.297 0 8.107-1.305 11.427-3.912-2.021-.062-3.808-.684-5.369-1.852-1.562-1.172-2.64-2.703-3.224-4.594.326.131.879.199 1.661.199.842 0 1.657-.101 2.439-.296-2.149-.456-3.906-1.528-5.273-3.224-1.367-1.692-2.051-3.645-2.051-5.862v-.094c1.173.652 2.54 1.041 4.103 1.172-2.735-1.888-4.103-4.459-4.103-7.718 0-1.562.421-3.092 1.268-4.59 5.017 6.12 11.363 9.312 19.049 9.574-.198-.588-.294-1.272-.294-2.055 0-2.54.895-4.702 2.688-6.494 1.787-1.789 3.983-2.687 6.592-2.687 2.666 0 4.886.946 6.643 2.833 1.955-.389 3.902-1.104 5.857-2.15-.652 2.15-1.987 3.843-4.006 5.079 1.83-.256 3.585-.745 5.279-1.46z"/></svg>